HIERARCHY
ROOT Hips
{
 OFFSET 0.000000 0.000000 0.000000
 CHANNELS 6 Xposition Yposition Zposition Yrotation Xrotation Zrotation
 JOINT Chest
 {
  OFFSET 0.000000 9.585900 0.002600
  CHANNELS 3 Yrotation Xrotation Zrotation
  JOINT Chest2
  {
   OFFSET 0.000000 9.601200 -0.005300
   CHANNELS 3 Yrotation Xrotation Zrotation
   JOINT Chest3
   {
    OFFSET 0.000000 9.561800 0.000000
    CHANNELS 3 Yrotation Xrotation Zrotation
    JOINT Chest4
    {
     OFFSET 0.000000 9.552100 0.000000
     CHANNELS 3 Yrotation Xrotation Zrotation
     JOINT Neck
     {
      OFFSET 0.000000 14.453000 0.000000
      CHANNELS 3 Yrotation Xrotation Zrotation
      JOINT Head
      {
       OFFSET 0.000000 8.936500 -0.011300
       CHANNELS 3 Yrotation Xrotation Zrotation
       End Site
       {
        OFFSET 0.000000 17.073600 -0.006000
       }
      }
     }
     JOINT RightCollar
     {
      OFFSET -2.921100 9.558500 0.000000
      CHANNELS 3 Yrotation Xrotation Zrotation
      JOINT RightShoulder
      {
       OFFSET -13.519700 0.000000 0.000000
       CHANNELS 3 Yrotation Xrotation Zrotation
       JOINT RightElbow
       {
        OFFSET 0.000000 -29.696600 0.000000
        CHANNELS 3 Yrotation Xrotation Zrotation
        JOINT RightWrist
        {
         OFFSET 0.000000 -24.004700 0.000000
         CHANNELS 3 Yrotation Xrotation Zrotation
         End Site
         {
          OFFSET 0.000000 -17.728500 0.000000
         }
        }
       }
      }
     }
     JOINT LeftCollar
     {
      OFFSET 2.921100 9.558500 0.000000
      CHANNELS 3 Yrotation Xrotation Zrotation
      JOINT LeftShoulder
      {
       OFFSET 13.519700 0.000000 0.000000
       CHANNELS 3 Yrotation Xrotation Zrotation
       JOINT LeftElbow
       {
        OFFSET 0.000000 -29.696600 0.000000
        CHANNELS 3 Yrotation Xrotation Zrotation
        JOINT LeftWrist
        {
         OFFSET 0.000000 -24.004700 0.000000
         CHANNELS 3 Yrotation Xrotation Zrotation
         End Site
         {
          OFFSET 0.000000 -17.728500 0.000000
         }
        }
       }
      }
     }
    }
   }
  }
 }
 JOINT RightHip
 {
  OFFSET -7.771700 -0.012900 -0.001300
  CHANNELS 3 Yrotation Xrotation Zrotation
  JOINT RightKnee
  {
   OFFSET 0.000000 -40.869800 0.001200
   CHANNELS 3 Yrotation Xrotation Zrotation
   JOINT RightAnkle
   {
    OFFSET 0.000000 -39.717900 0.002100
    CHANNELS 3 Yrotation Xrotation Zrotation
    JOINT RightToe
    {
     OFFSET 0.000000 -4.965400 11.033500
     CHANNELS 3 Yrotation Xrotation Zrotation
     End Site
     {
      OFFSET 0.000000 -1.423100 5.872300
     }
    }
   }
  }
 }
 JOINT LeftHip
 {
  OFFSET 7.771700 -0.012900 -0.001300
  CHANNELS 3 Yrotation Xrotation Zrotation
  JOINT LeftKnee
  {
   OFFSET 0.000000 -40.869800 0.001200
   CHANNELS 3 Yrotation Xrotation Zrotation
   JOINT LeftAnkle
   {
    OFFSET 0.000000 -39.717900 0.002100
    CHANNELS 3 Yrotation Xrotation Zrotation
    JOINT LeftToe
    {
     OFFSET 0.000000 -4.965400 11.033500
     CHANNELS 3 Yrotation Xrotation Zrotation
     End Site
     {
      OFFSET 0.000000 -1.423100 5.872300
     }
    }
   }
  }
 }
}
MOTION
Frames: 6
Frame Time: 0.008333
-255.545142 57.506222 153.145987 178.112465 -31.549571 -2.108066 1.761427 21.443059 3.169325 0.063011 2.906854 0.386313 0.154325 4.635290 0.680270 0.813220 18.228878 2.657487 2.258965 7.794020 -2.518733 5.666053 -21.061875 -6.100854 2.310784 -4.629768 -1.429758 12.391447 -13.974161 -22.133827 -144.427814 -84.789478 -172.198511 8.177512 -8.574118 -40.789873 -6.465415 -4.986798 -2.336870 1.636327 -9.842898 3.241200 -131.572358 -71.158941 94.416348 -18.948388 3.021608 -6.919009 2.783870 -44.013622 -1.783338 -11.614378 64.300837 -16.470381 3.991500 28.011125 4.039480 -1.080074 -17.159972 5.828809 -7.161486 -42.391022 0.725021 29.680692 66.531595 31.326512 -13.134768 7.522562 -4.361116 0.271723 0.565804 0.134761
-255.555151 57.496602 153.155239 178.108837 -31.578045 -2.106274 1.773318 21.449431 3.186678 0.074775 2.877165 0.400016 0.156290 4.624505 0.681127 0.807997 18.247969 2.648138 2.268400 7.867588 -2.540020 5.678140 -20.818252 -6.157719 2.330991 -4.670632 -1.414164 12.383620 -13.966637 -22.153434 -144.288805 -84.802604 -172.346045 8.182709 -8.679811 -40.895407 -6.414071 -5.000642 -2.308026 1.624868 -9.893432 3.146635 -131.636646 -71.103816 94.518420 -18.974071 3.029367 -6.930971 2.791972 -44.004326 -1.809531 -11.613040 64.303816 -16.460791 4.000727 28.018690 4.076162 -1.064773 -17.151540 5.790947 -7.150134 -42.364615 0.715871 29.679891 66.531481 31.331248 -13.141773 7.504784 -4.366619 0.279598 0.576689 0.134522
-255.571843 57.485914 153.164499 178.079579 -31.609051 -2.057219 1.799266 21.437416 3.183410 0.085746 2.844969 0.414426 0.147027 4.638820 0.668994 0.858800 18.166964 2.678418 2.193871 8.017552 -2.571900 5.716900 -20.549546 -6.222558 2.291809 -4.611430 -1.421219 12.375637 -13.960953 -22.174152 -144.265891 -84.796853 -172.381871 8.174639 -8.762001 -40.977465 -6.422907 -4.914904 -2.312726 1.615892 -9.943531 3.055124 -131.720278 -71.047368 94.639145 -18.997825 3.043618 -6.937449 2.873918 -44.012145 -1.924093 -11.569451 64.336841 -16.384886 4.047129 28.045917 4.110005 -1.085014 -17.168266 5.768740 -7.092644 -42.336133 0.657757 29.688089 66.522521 31.351558 -13.172554 7.486911 -4.394485 0.300332 0.586973 0.144289
-255.590519 57.473515 153.175495 178.028125 -31.631246 -1.990243 1.840605 21.416799 3.174331 0.079153 2.862076 0.400160 0.150144 4.619840 0.676672 0.883489 18.114173 2.699457 2.216136 8.193628 -2.620101 5.680678 -20.355514 -6.260731 2.284605 -4.591466 -1.428545 12.364103 -13.956520 -22.194707 -144.345074 -84.768539 -172.318044 8.156534 -8.818208 -41.031968 -6.361146 -4.899711 -2.291422 1.570350 -9.955538 2.948103 -131.808893 -70.994546 94.760014 -19.017077 3.059446 -6.937584 2.987484 -44.030354 -2.055461 -11.529782 64.354901 -16.306184 4.101658 28.108783 4.139058 -1.103599 -17.205112 5.751737 -7.014140 -42.320257 0.597867 29.700772 66.518011 31.361804 -13.195041 7.477303 -4.402439 0.322986 0.591991 0.148151
-255.604003 57.461312 153.185995 177.954236 -31.661768 -1.946638 1.913626 21.366027 3.228218 0.072241 2.894177 0.375403 0.141038 4.652199 0.655078 0.897884 18.073548 2.717132 2.232578 8.303782 -2.647786 5.676674 -20.152439 -6.309284 2.296476 -4.608148 -1.426922 12.350552 -13.953883 -22.214837 -144.020689 -84.787334 -172.641491 8.190030 -8.906883 -41.087113 -6.322943 -4.898112 -2.274418 1.553663 -9.968983 2.876422 -131.932488 -70.943141 94.924357 -18.995570 3.092779 -6.995660 3.075263 -44.028797 -2.110675 -11.504223 64.356298 -16.261517 4.178254 28.188743 4.193213 -1.139047 -17.260708 5.729444 -6.948644 -42.294281 0.583830 29.703241 66.510389 31.371116 -13.252066 7.427073 -4.443597 0.383332 0.640139 0.171175
-255.615733 57.447184 153.199292 178.020007 -31.670158 -1.990574 1.862908 21.337390 3.263963 0.077204 2.887544 0.376082 0.141648 4.642403 0.656067 0.883166 18.110730 2.699810 2.239135 8.342417 -2.656688 5.696544 -19.937815 -6.361018 2.315293 -4.655938 -1.412431 12.338838 -13.954407 -22.235449 -143.728416 -84.802971 -172.928903 8.223448 -8.985211 -41.130763 -6.294078 -4.920265 -2.249418 1.559935 -10.004670 2.816145 -132.000308 -70.915026 95.018153 -19.029737 3.080965 -6.959521 3.017142 -44.032849 -2.118485 -11.491168 64.342802 -16.247007 4.151505 28.188563 4.165431 -1.098728 -17.230756 5.744431 -7.017256 -42.284969 0.590382 29.689402 66.502543 31.372081 -13.233311 7.449417 -4.451724 0.358058 0.623081 0.163899
